<?xml version="1.0" encoding="utf-8"?>
<svg viewBox="0 0 100 100" xmlns="http://www.w3.org/2000/svg">
  <defs>
    <linearGradient gradientUnits="userSpaceOnUse" x1="1877.5" y1="9050" x2="1877.5" y2="12796.001" id="gradient-2" gradientTransform="matrix(0.141957, 0.141225, -0.20048, 0.200427, 2297.826416, 9970.984184)">
      <stop offset="0" style=""/>
      <stop offset="1" style="stop-color: rgb(68, 68, 68);"/>
    </linearGradient>
    <linearGradient gradientUnits="userSpaceOnUse" x1="1870.18" y1="11657.938" x2="1870.18" y2="12021.087" id="gradient-7" gradientTransform="matrix(0.143149, 0.140017, -2.068028, 2.06748, 24591.226563, -12314.417183)" spreadMethod="pad">
      <stop offset="0" style=""/>
      <stop offset="1" style="stop-color: rgb(68, 68, 68);"/>
    </linearGradient>
    <linearGradient gradientUnits="userSpaceOnUse" x1="1870.788" y1="10708.179" x2="1870.788" y2="11399.838" id="gradient-3" gradientTransform="matrix(0.141494, 0.141689, -1.085795, 1.085507, 12112.1875, 161.125038)">
      <stop offset="0" style=""/>
      <stop offset="1" style="stop-color: rgb(68, 68, 68);"/>
    </linearGradient>
    <linearGradient gradientUnits="userSpaceOnUse" x1="1535.645" y1="10069.16" x2="1535.645" y2="10805.709" id="gradient-1" gradientTransform="matrix(0.141771, 0.141412, -1.019623, 1.019348, 10799.041992, 1568.854912)">
      <stop offset="0" style=""/>
      <stop offset="1" style="stop-color: rgb(68, 68, 68);"/>
    </linearGradient>
    <linearGradient gradientUnits="userSpaceOnUse" x1="2200.908" y1="10071.503" x2="2200.908" y2="10805.124" id="gradient-10" gradientTransform="matrix(0.114026, 0.164592, -1.023689, 1.023419, 10809.124023, 1380.380424)" spreadMethod="pad">
      <stop offset="0" style=""/>
      <stop offset="1" style="stop-color: rgb(68, 68, 68);"/>
    </linearGradient>
  </defs>
  <rect x="7.983" y="8" width="84" height="84" style="fill: rgb(255, 255, 255); visibility: hidden;"/>
  <svg width="1280pt" height="1280pt" version="1.0" viewBox="0 0 1280 1280" xmlns="http://www.w3.org/2000/svg" transform="matrix(1.333333, 0, 0, 1.333333, 0, 0)" style="">
    <g transform="translate(0 1280) scale(.1 -.1)" fill="#048b9a">
      <path d="M 81.216 12799.824 C 70.543 12798.652 59.871 12795.719 51.016 12791.44 C 24.511 12778.716 6.509 12755.027 1.056 12725.768 C 0.059 12720.491 0 12705.07 0 12425.264 C 0 12141.06 0.059 12130.096 1.056 12124.173 C 7.682 12086.646 36.65 12057.681 74.179 12051.055 C 80.101 12050.058 91.067 12050 375.293 12050 C 655.121 12050 670.544 12050.058 675.821 12051.055 C 708.894 12057.212 735.34 12079.962 745.543 12111.039 C 746.775 12114.85 748.3 12120.772 748.945 12124.173 C 749.942 12130.096 750 12141.06 750 12425.264 C 750 12705.07 749.942 12720.491 748.945 12725.768 C 741.966 12763.353 714.347 12791.146 676.408 12798.886 C 671.716 12799.824 653.89 12799.883 377.345 12800 C 215.618 12800 82.33 12799.942 81.216 12799.824 Z M 415.52 12712.282 C 438.565 12701.963 471.696 12687.069 489.172 12679.271 L 520.954 12665.081 L 521.013 12593.429 L 521.013 12521.308 C 521.013 12521.015 509.754 12520.721 495.974 12520.545 C 474.101 12520.311 470.876 12520.135 470.993 12519.373 C 471.169 12518.435 481.196 12472.817 504.594 12367.215 C 521.247 12292.104 554.437 12142.057 556.548 12132.206 C 557.428 12128.395 558.013 12125.17 557.896 12125.111 C 557.779 12124.994 546.345 12124.759 532.447 12124.701 L 507.233 12124.466 L 503.245 12142.233 L 499.316 12159.999 L 437.92 12234.876 C 404.202 12276.038 375.821 12310.574 374.941 12311.629 L 373.358 12313.447 L 310.438 12236.811 L 247.577 12160.175 L 243.647 12142.467 C 241.536 12132.734 239.66 12124.701 239.484 12124.583 C 239.367 12124.466 227.814 12124.525 213.859 12124.642 C 190.696 12124.877 188.526 12124.994 188.761 12125.873 C 188.936 12126.401 190.637 12134.2 192.631 12143.23 C 196.032 12158.885 218.256 12259.268 257.721 12437.401 C 267.749 12482.432 275.899 12519.549 275.899 12519.901 C 275.899 12520.37 268.511 12520.545 250.684 12520.545 L 225.469 12520.545 L 225.586 12592.725 L 225.762 12664.964 L 245.113 12673.642 C 255.785 12678.391 288.858 12693.226 318.706 12706.653 C 348.553 12720.022 373.123 12730.987 373.299 12731.045 C 373.534 12731.045 392.534 12722.602 415.52 12712.282 Z" style="paint-order: fill; fill-rule: nonzero; fill: url(#gradient-2);"/>
      <path d="M 281.177 12608.498 L 281.177 12572.144 L 373.534 12572.144 L 465.891 12572.144 L 465.774 12608.381 L 465.598 12644.558 L 373.417 12644.734 L 281.177 12644.852 L 281.177 12608.498 Z" style="paint-order: fill; fill-rule: nonzero; fill: url(#gradient-7);"/>
      <path d="M 327.208 12519.842 C 327.033 12519.431 323.749 12504.832 319.938 12487.476 C 314.367 12462.263 313.076 12455.637 313.604 12454.875 C 317.944 12448.952 373.534 12381.64 373.827 12381.991 C 374.238 12382.402 427.13 12447.252 431.763 12452.998 L 433.816 12455.519 L 430.766 12469.709 C 429.065 12477.508 425.899 12492.108 423.729 12502.075 L 419.742 12520.252 L 373.593 12520.429 C 337.002 12520.545 327.384 12520.429 327.208 12519.842 Z" style="paint-order: fill; fill-rule: nonzero; fill: url(#gradient-3);"/>
      <path d="M 297.772 12387.562 C 296.072 12379.939 288.741 12346.751 281.469 12313.916 C 274.199 12281.021 268.335 12254.108 268.452 12254.05 C 268.628 12253.873 343.452 12345.051 344.448 12346.693 C 345.211 12347.924 344.331 12349.155 324.512 12373.137 C 313.076 12386.975 303.167 12399.054 302.521 12399.933 C 301.818 12400.813 301.173 12401.516 301.055 12401.516 C 300.938 12401.516 299.472 12395.243 297.772 12387.562 Z" style="paint-order: fill; fill-rule: nonzero; fill: url(#gradient-1);"/>
      <path d="M 423.436 12374.72 C 411.297 12360.003 401.447 12347.748 401.505 12347.514 C 401.798 12346.693 477.796 12254.343 478.03 12254.518 C 478.264 12254.812 446.071 12400.93 445.72 12401.399 C 445.601 12401.458 435.633 12389.438 423.436 12374.72 Z" style="paint-order: fill; fill-rule: nonzero; fill: url(#gradient-10);"/>
    </g>
  </svg>
</svg>